<svg width="36" height="30" viewBox="0 0 36 30" fill="none" xmlns="http://www.w3.org/2000/svg">
<path d="M32.5177 1.09101C32.5177 1.09101 35.7552 -0.17149 35.4844 2.89434C35.3952 4.15684 34.5861 8.57601 33.9561 13.3552L31.7977 27.5135C31.7977 27.5135 31.6177 29.5877 29.9986 29.9485C28.3802 30.3085 25.9519 28.686 25.5019 28.3252C25.1419 28.0543 18.7569 23.996 16.5086 22.0127C15.8786 21.471 15.1586 20.3893 16.5986 19.1268L26.0411 10.1085C27.1202 9.02684 28.1994 6.50184 23.7027 9.56768L11.1111 18.1343C11.1111 18.1343 9.67191 19.0368 6.97441 18.2252L1.12775 16.421C1.12775 16.421 -1.03059 15.0685 2.65691 13.716C11.6511 9.47768 22.7136 5.14934 32.5161 1.09101H32.5177Z" fill="black"/>
</svg>
