<svg width="40" height="40" viewBox="0 0 40 40" fill="none" xmlns="http://www.w3.org/2000/svg">
<path d="M34.5177 6.09101C34.5177 6.09101 37.7552 4.82851 37.4844 7.89434C37.3952 9.15684 36.5861 13.576 35.9561 18.3552L33.7977 32.5135C33.7977 32.5135 33.6177 34.5877 31.9986 34.9485C30.3802 35.3085 27.9519 33.686 27.5019 33.3252C27.1419 33.0543 20.7569 28.996 18.5086 27.0127C17.8786 26.471 17.1586 25.3893 18.5986 24.1268L28.0411 15.1085C29.1202 14.0268 30.1994 11.5018 25.7027 14.5677L13.1111 23.1343C13.1111 23.1343 11.6719 24.0368 8.97441 23.2252L3.12775 21.421C3.12775 21.421 0.969411 20.0685 4.65691 18.716C13.6511 14.4777 24.7136 10.1493 34.5161 6.09101H34.5177Z" fill="white"/>
</svg>
