<svg width="212" height="37" viewBox="0 0 212 37" fill="none" xmlns="http://www.w3.org/2000/svg">
<path d="M39.6348 4.49829V30.8504H44.1749V8.06246H52.2796V30.8504H56.8197V4.49829H39.6348Z" fill="black"/>
<path d="M64.6849 11.7783H60.5575V36.3483H65.0226V28.6133C66.1482 30.3195 67.7992 31.2295 69.7128 31.2295C74.0653 31.2295 77.067 27.7033 77.067 21.2954C77.067 14.9254 74.1403 11.3991 69.9379 11.3991C67.8367 11.3991 66.1107 12.385 64.91 14.2429L64.6849 11.7783ZM68.5871 27.6654C66.2233 27.6654 65.0226 25.7316 65.0226 21.3333C65.0226 16.897 66.2983 14.9633 68.8123 14.9633C71.2512 14.9633 72.4519 16.897 72.4519 21.2954C72.4519 25.7316 71.1761 27.6654 68.5871 27.6654Z" fill="black"/>
<path d="M93.9761 17.845C93.9761 13.2191 91.6498 11.475 86.922 11.475C83.9578 11.475 81.6315 12.4229 80.2807 13.2191V16.9729C81.4814 16.0629 84.1079 15.077 86.3967 15.077C88.5355 15.077 89.511 15.8354 89.511 17.8829V18.9445H88.7981C81.9692 18.9445 78.9299 21.2195 78.9299 25.087C78.9299 28.9545 81.2563 31.1158 84.7083 31.1158C87.3348 31.1158 88.4604 30.2437 89.3234 29.3337H89.511C89.5486 29.8266 89.6986 30.4712 89.8487 30.8504H94.2012C94.0512 29.2958 93.9761 27.7412 93.9761 26.1866V17.845ZM89.511 26.3004C88.9482 27.1345 87.8976 27.817 86.3217 27.817C84.4456 27.817 83.5076 26.7554 83.5076 25.125C83.5076 22.9637 85.0459 22.1675 88.8732 22.1675H89.511V26.3004Z" fill="black"/>
<path d="M108.635 30.8504H113.7L106.534 20.7266L112.837 11.7783H108.335L102.031 20.7266V11.7783H97.5662V30.8504H102.031V21.6366L108.635 30.8504Z" fill="black"/>
<path d="M128.67 15.3425V11.7783H113.699V15.3425H118.952V30.8504H123.417V15.3425H128.67Z" fill="black"/>
<path d="M131.314 11.7783V30.8504H135.291L142.12 19.0583V30.8504H146.435V11.7783H142.458L135.629 23.5704V11.7783H131.314Z" fill="black"/>
<path d="M161.253 30.8504H166.319L159.152 20.7266L165.456 11.7783H160.953L154.65 20.7266V11.7783H150.184V30.8504H154.65V21.6366L161.253 30.8504Z" fill="black"/>
<path d="M170.247 36.7275C174.412 36.7275 175.951 33.732 177.226 29.8266L183.117 11.7783H178.802L174.637 26.1108L170.473 11.7783H165.782L172.274 31.6845C171.786 32.5945 171.073 33.1633 169.835 33.1633C169.009 33.1633 168.296 32.8979 167.808 32.405V36.0829C167.808 36.0829 168.484 36.7275 170.247 36.7275Z" fill="black"/>
<path d="M200.908 30.8504H205.261L205.186 11.7783H199.07L194.98 24.4804L191.303 11.7783H184.811V30.8504H188.601V16.5937L192.691 30.8504H196.331L200.908 16.5937V30.8504Z" fill="black"/>
<path fill-rule="evenodd" clip-rule="evenodd" d="M17.3177 35C26.882 35 34.6354 27.165 34.6354 17.5C34.6354 7.83502 26.882 0 17.3177 0C7.7534 0 0 7.83502 0 17.5C0 27.165 7.7534 35 17.3177 35ZM17.9466 10.1695H19.4933V27.5297H22.9549V7.45288H17.9282C12.8646 7.45288 10.1947 10.0951 10.1947 13.9653C10.1947 17.054 11.6493 18.8775 14.2456 20.7568L9.73438 27.5483H13.4906L18.5174 19.9567L16.7681 18.7658C14.6506 17.3145 13.6195 16.1795 13.6195 13.7606C13.6195 11.6208 15.111 10.1695 17.9466 10.1695Z" fill="black"/>
</svg>
