<svg width="38" height="24" viewBox="0 0 38 24" xmlns="http://www.w3.org/2000/svg">
<path fill-rule="evenodd" clip-rule="evenodd" d="M36.8672 2.3125C37.1453 1.43125 36.8672 0.790625 35.6367 0.790625H31.5453C30.5133 0.790625 30.0367 1.35156 29.7586 1.95156C29.7586 1.95156 27.6539 7.07656 24.7148 10.3992C23.7617 11.3602 23.325 11.6805 22.8086 11.6805C22.5305 11.6805 22.1727 11.3602 22.1727 10.4797V2.27109C22.1727 1.23047 21.8555 0.75 20.9812 0.75H14.5469C13.9109 0.75 13.5141 1.23047 13.5141 1.71094C13.5141 2.71172 14.9836 2.95234 15.1422 5.75469V11.8438C15.1422 13.1648 14.9078 13.4062 14.3875 13.4062C12.9977 13.4062 9.62187 8.24141 7.59688 2.35625C7.20312 1.19062 6.80313 0.75 5.77031 0.75H1.63984C0.448438 0.75 0.25 1.31016 0.25 1.91094C0.25 2.99219 1.63984 8.43672 6.72344 15.643C10.0992 20.5648 14.9047 23.2102 19.2336 23.2102C21.8555 23.2102 22.1727 22.6094 22.1727 21.6086V17.8852C22.1727 16.6844 22.4109 16.4844 23.2453 16.4844C23.8406 16.4844 24.9133 16.8039 27.3359 19.1664C30.1156 21.9688 30.5922 23.25 32.1414 23.25H36.232C37.4234 23.25 37.9797 22.6492 37.6617 21.4883C37.3047 20.3273 35.9539 18.6461 34.2063 16.6445C33.2531 15.5242 31.8234 14.2828 31.3867 13.682C30.7914 12.8813 30.95 12.5609 31.3867 11.8406C31.3469 11.8406 36.3516 4.71406 36.8672 2.30938"/>
</svg>
